<svg xmlns="http://www.w3.org/2000/svg" viewBox="0 0 204.37 93.08">
  <defs>
    <style>
      .cls-1 {
        fill: #c00;
      }
    </style>
  </defs>
  <g id="Layer_2" data-name="Layer 2">
    <g id="CDW">
      <path class="cls-1" d="M99,3.91a1.77,1.77,0,1,1,1.76-1.77A1.77,1.77,0,0,1,99,3.91m0,.38a2.15,2.15,0,1,0-2.15-2.15A2.14,2.14,0,0,0,99,4.29m-.13-2c.14,0,.27,0,.36.1s.12.32.15.54.06.3.08.45H100a3.06,3.06,0,0,1-.15-.73c0-.27-.08-.43-.43-.5h0a.58.58,0,0,0,.52-.59c0-.56-.49-.69-1-.69h-.81V3.37h.39V2.28Zm-.33-.4V1.24H99c.32,0,.4.1.4.29s-.08.34-.45.35Z"/>
      <path class="cls-1" d="M0,0V26.1a14.57,14.57,0,0,1,9.87-3.49c5.86,0,10.32,2.37,8.8,10.34H10.22c.54-3.79-.32-4.3-1.44-4.29-2.39,0-3.13,2.43-3.91,6.14-.75,3.52-1.12,6.14,1.2,6.14,1.19,0,2.14-.7,3.3-3.83h6a60.41,60.41,0,0,1,4.86-4.42l2-9.49H33.11c.52,0,1,0,1.5.05,3-1.58,6.15-3.17,9.39-4.53,18.91-7.92,37.71-9.84,48.8-5.91V0ZM10.22,46c-2,3.91-2.6,7.7-1.08,10.68,5.12,10,28.92,9.91,51.79.33A92.13,92.13,0,0,0,76.4,48.8c13.4-9,18.6-19.11,14.76-26.64C86,12.11,65.24,11,42.37,20.62c-2.12.89-4.15,1.83-6.11,2.81,6.57,1.05,7.87,5.61,6.59,11.63-1.49,7-7,11.34-14.13,11.34H17.29l2.6-12.25a41.8,41.8,0,0,0-3.2,3H18A12.46,12.46,0,0,1,10.22,46ZM53.11,23.2,52,37.76H52L57.29,23.2h9.52l-.94,14.56h.06L71,23.2h8.22L69.27,46.4h-10l1.05-15h-.06l-5.36,15H45l-.09-23.2Zm13,36.87C40.07,71,14,70.29,8.19,58.86,6.34,55.22,6.46,51,8.48,46.55A16.31,16.31,0,0,1,4.65,47,13.55,13.55,0,0,1,0,46.27V92.8H92.8V43.58A66.42,66.42,0,0,1,84,50.49,109.24,109.24,0,0,1,66.07,60.07ZM33.37,34.8c.48-2.25.64-3.89.23-4.85A2.45,2.45,0,0,0,31,28.47h-.9L27.4,41.14h.9a3.92,3.92,0,0,0,3.24-1.48A11.69,11.69,0,0,0,33.37,34.8Z"/>
      <g>
        <path class="cls-1" d="M109.53,36.28v5.86h-5v-19h8.37c4.18,0,6.68,2.51,6.68,6.55s-2.5,6.55-6.68,6.55Zm0-4.46h2.79a1.84,1.84,0,0,0,2.09-2.09,1.84,1.84,0,0,0-2.09-2.09h-2.79Z"/>
        <path class="cls-1" d="M135.45,37.68v4.46H121.8v-19h13.51v4.46h-8.5v2.51h7.25v4.46h-7.25v3.07Z"/>
        <path class="cls-1" d="M137.53,32.52c0-5.44,1.95-9.62,8.78-9.62s8.78,4.18,8.78,9.62-2,9.89-8.78,9.89S137.53,38,137.53,32.52Zm5.29,0c0,3.48.56,5.71,3.49,5.71s3.48-2.23,3.48-5.71-.56-5.44-3.48-5.44S142.82,29,142.82,32.52Z"/>
        <path class="cls-1" d="M162.85,36.28v5.86h-5v-19h8.37c4.18,0,6.69,2.51,6.69,6.55s-2.51,6.55-6.69,6.55Zm0-4.46h2.79a1.84,1.84,0,0,0,2.09-2.09,1.84,1.84,0,0,0-2.09-2.09h-2.79Z"/>
        <path class="cls-1" d="M188.49,37.68v4.46H175.12v-19h5v14.5Z"/>
        <path class="cls-1" d="M204.37,37.68v4.46H190.71v-19h13.52v4.46h-8.5v2.51H203v4.46h-7.24v3.07Z"/>
        <path class="cls-1" d="M116.47,56.6l-2.06,11H108l-4.31-19.1h5.57l2.2,12.83h0l2.23-12.83h5.85l2.34,12.83h0L124,48.51h5.29L125,67.61h-6.41l-2.06-11Z"/>
        <path class="cls-1" d="M136.45,59.94v7.53h-5v-19h5v7H142v-7h5v19h-5V59.94Z"/>
        <path class="cls-1" d="M149.79,57.85c0-5.43,2-9.62,8.78-9.62s8.78,4.19,8.78,9.62-1.95,9.9-8.78,9.9S149.79,63.29,149.79,57.85Zm5.3,0c0,3.49.55,5.71,3.48,5.71s3.49-2.22,3.49-5.71-.56-5.43-3.49-5.43S155.09,54.37,155.09,57.85Z"/>
        <path class="cls-1" d="M115.11,88.54V86.67h-2.23V82.21h7.24V92A22.66,22.66,0,0,1,113,93.08c-6.82,0-8.78-4.46-8.78-9.9s2-9.61,8.78-9.61a22.92,22.92,0,0,1,7.11,1.11L119,78.87a22.72,22.72,0,0,0-5.58-.84c-2.65,0-3.9,1.67-3.9,5.15,0,3.77,1.25,5.44,3.9,5.44C114,88.62,114.49,88.59,115.11,88.54Z"/>
        <path class="cls-1" d="M137,88.34V92.8H123.3v-19h13.51v4.46h-8.5v2.5h7.25v4.47h-7.25v3.06Z"/>
        <path class="cls-1" d="M148.71,78.31V92.8h-5V78.31H139V73.85h14.49v4.46Z"/>
        <path class="cls-1" d="M161.25,92.8v-19h5v19Z"/>
        <path class="cls-1" d="M178.21,78.31V92.8h-5V78.31h-4.73V73.85H183v4.46Z"/>
      </g>
      <path class="cls-1" d="M188.28,77.6A1.76,1.76,0,1,1,190,75.84a1.76,1.76,0,0,1-1.74,1.76m0,.37a2.13,2.13,0,1,0-2.13-2.13A2.12,2.12,0,0,0,188.28,78m-.13-2c.14,0,.27,0,.36.11s.12.31.15.53.05.3.08.44h.5a3.41,3.41,0,0,1-.15-.72c0-.27-.07-.42-.42-.49h0a.59.59,0,0,0,.51-.59c0-.56-.48-.69-.94-.69h-.81v2.5h.39V76Zm-.33-.39V75h.47c.31,0,.4.1.4.29s-.09.34-.45.35Z"/>
    </g>
  </g>
</svg>
