<svg id="Layer_1" data-name="Layer 1" xmlns="http://www.w3.org/2000/svg" xmlns:xlink="http://www.w3.org/1999/xlink" viewBox="0 0 208.06 165.99"><defs><style>.cls-1{fill:none;}.cls-2{fill:#00bcea;}.cls-3{clip-path:url(#clip-path);}.cls-4{fill:#00bceb;}.cls-5{clip-path:url(#clip-path-2);}.cls-6{clip-path:url(#clip-path-3);}.cls-7{clip-path:url(#clip-path-4);}</style><clipPath id="clip-path" transform="translate(-95.78 -117.1)"><rect class="cls-1" x="95" y="117" width="209" height="167"/></clipPath><clipPath id="clip-path-2" transform="translate(-95.78 -117.1)"><rect class="cls-1" x="95.78" y="146.15" width="9.22" height="20"/></clipPath><clipPath id="clip-path-3" transform="translate(-95.78 -117.1)"><rect class="cls-1" x="145" y="117.38" width="10" height="57.78"/></clipPath><clipPath id="clip-path-4" transform="translate(-95.78 -117.1)"><rect class="cls-1" x="245" y="117.38" width="10" height="57.78"/></clipPath></defs><path class="cls-2" d="M118.49,243.49h13q7,0,10.62,3.62a11.61,11.61,0,0,1,3.12,8.52,10.51,10.51,0,0,1-4.31,9,15.69,15.69,0,0,1-9.58,2.74h-9.85v14.87h-3Zm13.14,2.6H121.51v18.75h9.9a11.38,11.38,0,0,0,8.25-2.82,8.55,8.55,0,0,0,2.44-6.36,9.06,9.06,0,0,0-3.14-7.38,11.14,11.14,0,0,0-7.33-2.19Zm0,0" transform="translate(-95.78 -117.1)"/><path class="cls-2" d="M152.32,261.53h-3.08a7.87,7.87,0,0,1,3.67-6.14,12.64,12.64,0,0,1,7.21-1.89,10.79,10.79,0,0,1,7.92,2.81,8.61,8.61,0,0,1,2.47,6.41v19.6h-2.37l-.47-4.68a10.75,10.75,0,0,1-9.92,5.43,10,10,0,0,1-7-2.3,7.89,7.89,0,0,1,.49-11.62,17.35,17.35,0,0,1,7.91-3l8.53-1.4v-2.42a5.9,5.9,0,0,0-2.32-5,10.23,10.23,0,0,0-11,.2,5.8,5.8,0,0,0-2.05,4Zm6.23,19.07a9.2,9.2,0,0,0,6.52-2.59,7.63,7.63,0,0,0,2.6-5.76v-5.11l-7.54,1.29a13.66,13.66,0,0,0-7.06,2.69,5.51,5.51,0,0,0,.7,8.29,8.6,8.6,0,0,0,4.78,1.19Zm0,0" transform="translate(-95.78 -117.1)"/><path class="cls-2" d="M178.75,282.27h-2.9v-28h2.37l.42,5.39c1.47-4.12,4.09-6.2,7.86-6.2a9.32,9.32,0,0,1,2.92.44v2.85a11.43,11.43,0,0,0-3.07-.48,6.5,6.5,0,0,0-5.61,3.22,13,13,0,0,0-2,7.5Zm0,0" transform="translate(-95.78 -117.1)"/><path class="cls-2" d="M206.87,256.79h-6.53v19.87c0,2.63,1.23,3.94,3.67,3.94a14,14,0,0,0,3.41-.42v2.3a12.55,12.55,0,0,1-3.55.52,6.3,6.3,0,0,1-5-1.87,6.84,6.84,0,0,1-1.45-4.59V256.79h-4.05v-2.53h4l.16-6.81h2.74v6.81h6.53Zm0,0" transform="translate(-95.78 -117.1)"/><g class="cls-3"><path class="cls-2" d="M214.18,282.27h-2.89v-28h2.4l.32,4.79a10.45,10.45,0,0,1,4.25-4.36,10.69,10.69,0,0,1,5.11-1.24,9.25,9.25,0,0,1,7.36,3,9.62,9.62,0,0,1,2.32,6.82v19h-2.93V263.32a7.22,7.22,0,0,0-2.2-5.71,7.63,7.63,0,0,0-5.23-1.71,8.09,8.09,0,0,0-6.14,2.71,8.78,8.78,0,0,0-2.37,6.19Zm0,0" transform="translate(-95.78 -117.1)"/><path class="cls-2" d="M260,274.62h3.15a10.66,10.66,0,0,1-4.46,6.41,13.65,13.65,0,0,1-17.05-2.25,15.83,15.83,0,0,1-3.41-10.52,15.37,15.37,0,0,1,4.14-11.47,11.83,11.83,0,0,1,8.63-3.41,11.39,11.39,0,0,1,9.47,4.31,17.75,17.75,0,0,1,3.18,11.2H241.06a12.48,12.48,0,0,0,3.55,9.17,9.85,9.85,0,0,0,6.82,2.47,9,9,0,0,0,5.71-1.82,8.06,8.06,0,0,0,2.83-4.09Zm-9.1-18.75a8.74,8.74,0,0,0-7,3.12,13,13,0,0,0-2.79,7.58H260.5a11.7,11.7,0,0,0-3.33-8.4,9,9,0,0,0-6.3-2.33Zm0,0" transform="translate(-95.78 -117.1)"/></g><path class="cls-2" d="M272,282.27h-2.91v-28h2.37l.43,5.39c1.48-4.12,4.09-6.2,7.87-6.2a9.24,9.24,0,0,1,2.9.44v2.85a11.43,11.43,0,0,0-3.07-.48,6.51,6.51,0,0,0-5.61,3.22,13.31,13.31,0,0,0-2,7.5Zm0,0" transform="translate(-95.78 -117.1)"/><rect class="cls-4" x="58.84" y="73.13" width="9.12" height="36.15"/><path class="cls-4" d="M237.31,200.66a15.87,15.87,0,0,0-7.69-1.95,9.65,9.65,0,0,0,0,19.3,16.38,16.38,0,0,0,7.69-2v9.7A29.58,29.58,0,0,1,229,227c-10.23,0-19.27-7.08-19.27-18.75,0-10.79,8.15-18.75,19.27-18.75a27.58,27.58,0,0,1,8.31,1.29Zm0,0" transform="translate(-95.78 -117.1)"/><path class="cls-4" d="M142.1,200.66a15.53,15.53,0,0,0-7.66-1.95,9.65,9.65,0,0,0,0,19.3,16.29,16.29,0,0,0,7.66-2v9.7a29,29,0,0,1-8.32,1.28c-10.23,0-19.25-7.08-19.25-18.75,0-10.79,8.15-18.75,19.25-18.75a27.64,27.64,0,0,1,8.32,1.29Zm0,0" transform="translate(-95.78 -117.1)"/><path class="cls-4" d="M285.11,208.31A19.11,19.11,0,1,1,266,189.56a18.55,18.55,0,0,1,19.11,18.75ZM266,198.8a9.51,9.51,0,1,0,9.45,9.51A9.36,9.36,0,0,0,266,198.8Zm0,0" transform="translate(-95.78 -117.1)"/><path class="cls-4" d="M198.35,198.46a30.79,30.79,0,0,0-7.13-1.11c-3.66,0-5.64,1.23-5.64,3,0,2.19,2.68,3,4.18,3.41l2.52.8c5.91,1.87,8.52,5.93,8.52,10.34,0,9.07-8,12.12-15,12.12a52.37,52.37,0,0,1-9.84-1v-8.3a34.26,34.26,0,0,0,8.71,1.37c4.54,0,6.63-1.33,6.63-3.41s-1.81-2.88-4.07-3.6l-2-.63c-5.11-1.6-9.32-4.59-9.32-10.57,0-6.82,5.12-11.3,13.47-11.3a39.9,39.9,0,0,1,8.9,1.14Zm0,0" transform="translate(-95.78 -117.1)"/><g class="cls-5"><path class="cls-4" d="M104.86,151.4c0-6.05-9.08-6.05-9.08,0v9.48c0,6,9.08,6,9.08,0Zm0,0" transform="translate(-95.78 -117.1)"/></g><path class="cls-4" d="M129.72,138.94c-.35-5.68-8.7-5.68-9,0v21.94a4.53,4.53,0,1,0,9,0Zm0,0" transform="translate(-95.78 -117.1)"/><g class="cls-6"><path class="cls-4" d="M154.61,121.89c0-6-9.07-6-9.07,0V170c0,6,9.07,6,9.07,0Zm0,0" transform="translate(-95.78 -117.1)"/></g><path class="cls-4" d="M179.48,138.94c-.35-5.68-8.7-5.68-9,0v21.94a4.53,4.53,0,1,0,9,0Zm0,0" transform="translate(-95.78 -117.1)"/><path class="cls-4" d="M204.33,151.4a4.52,4.52,0,1,0-9,0v9.48a4.52,4.52,0,0,0,9,0Zm0,0" transform="translate(-95.78 -117.1)"/><path class="cls-4" d="M229.22,138.94c0-6-9-6-9,0v21.94c0,6,9,6,9,0Zm0,0" transform="translate(-95.78 -117.1)"/><g class="cls-7"><path class="cls-4" d="M254.1,121.89a4.51,4.51,0,1,0-9,0V170a4.51,4.51,0,1,0,9,0Zm0,0" transform="translate(-95.78 -117.1)"/></g><path class="cls-4" d="M279,138.94c-.35-5.7-8.74-5.7-9.08,0v21.94c.34,5.69,8.73,5.69,9.08,0Zm0,0" transform="translate(-95.78 -117.1)"/><path class="cls-4" d="M303.84,151.4c0-6-9-6-9,0v9.48c0,6,9,6,9,0Zm0,0" transform="translate(-95.78 -117.1)"/></svg>